<?xml version="1.0" encoding="UTF-8"?>
<svg id="Capa_1" xmlns="http://www.w3.org/2000/svg" version="1.1" viewBox="0 0 920 650">
  <!-- Generator: Adobe Illustrator 29.4.0, SVG Export Plug-In . SVG Version: 2.1.0 Build 152)  -->
  <defs>
    <style>
      .st0 {
        fill: #f09222;
      }

      .st1 {
        fill: #2f3a40;
      }

      .st2, .st3 {
        stroke-width: 62px;
      }

      .st2, .st3, .st4, .st5, .st6 {
        fill: none;
        stroke: #fff;
      }

      .st3, .st4, .st5 {
        stroke-dasharray: 0 0;
        stroke-linecap: round;
        stroke-miterlimit: 90;
      }

      .st7 {
        fill: #139c6f;
      }

      .st4 {
        stroke-width: 8px;
      }

      .st5 {
        stroke-width: 17px;
      }

      .st6 {
        stroke-width: 12px;
      }
    </style>
  </defs>
  <path d="M26.56.84"/>
  <path d="M26.56,648.84"/>
  <path d="M25.56,649.84"/>
  <path d="M25.56-.16"/>
  <g>
    <path class="st2" d="M430.03,188.36c-5.53-21.09-21.98-67.47-30.34-82.37-2.99-7.16-7.89-13.87-15.9-27.22-1.09-1.94-11.29-16.38-16.76-25.03,23.38-.71,39.86-.52,46.02-.58,81.67,1.55,154.53,6.26,231.82,36.83,98.08,38.76,166.74,110.36,209.01,208.4,2.42,5.61,4.78,11.35,6.8,17.16-10.54,27.86-23.15,56.18-38.53,81.59-39.91,65.92-101.77,118.94-170.77,150.09-66.46,30.06-135.06,38.25-206.94,40.64-25.97.84-52.3,1.68-78.21.52,7.78-12.9,16.41-25.09,23.79-38.18,14.34-25.54,24.88-52.89,34.5-80.56,3.69-9.29,5.3-19.74,7.14-29.61,7.49-33.67,10.94-71.27,11.69-105.84.35-10.19.35-20.32,0-30.57-.75-17.8-2.07-35.67-4.03-53.41s-4.49-35.41-7.66-52.95c-.61-10.23-9.1-31.51-11.81-41.32l4.9,11.39,5.28,21.03h0Z"/>
    <path class="st1" d="M666.53,302.2"/>
    <path class="st1" d="M639.92,292.66h0"/>
    <g>
      <path class="st7" d="M286.57,172.04c2.71,15.67,5.36,31.8,6.91,47.86-18.49-1.1-37.15-.26-55.69-.26h-104.36c-17.91.13-41.24,2.32-58.63,0-2.48-.32-4.9-.84-6.91-3.29-2.82-3.35-5.76-11.35-5.93-17.03-.29-7.22.98-15.8,4.15-21.09,2.82-4.64,6.85-5.29,10.65-5.81,8.58-1.1,17.51-.52,26.15-.52h183.78v.13h-.12Z"/>
      <path class="st0" d="M286.51,474.16l-.06.06h-146.92l-43.94-.13c-6.45,0-13.19,1.23-19.58.26-3.57-.58-6.85-2.52-9.45-6.84-2.53-4.19-4.61-11.16-4.49-17.22.12-6.97,1.9-14.19,5.01-18.96,2.07-3.23,4.32-4.19,7.14-4.64,8.81-1.48,17.97-.77,26.84-.77h46.31l146.35.13c-1.84,16-3.4,33.02-7.14,48.12"/>
      <path class="st0" d="M289.07,476.6"/>
      <path class="st0" d="M251.08,481.91"/>
    </g>
  </g>
  <path class="st3" d="M202.81,53.17c141.2,180.35,157.44,286,4.19,535.11"/>
  <path class="st6" d="M153.94,62.13"/>
  <path class="st6" d="M142.31,150.75"/>
  <path class="st6" d="M142.59,11.24"/>
  <rect class="st4" x="178.34" y="26.38" width="19.57" height="34.48"/>
  <rect class="st4" x="175.67" y="26.38" width="3.38" height="23.47"/>
  <rect class="st5" x="184.46" y="596.9" width="15.79" height="13.83"/>
</svg>